# xmcd
#
# Track frame offsets: 
#        150
#        21552
#        41702
#        67544
#        89152
#        113840
#        136380
#        166251
#        189333
#        210270
#        227441
#        248560
#
# Disc length: 3566 seconds
#
# Revision: 0
# Processed by: cddbd v1.5.2PL0 Copyright (c) Steve Scherf et al.
# Submitted via: ExactAudioCopy v1.0b3
#
DISCID=960dec0c
DTITLE=Jerry McCain - American Roots: Blues
DYEAR=2002
DGENRE=Blues
TTITLE0=Blues Tribute
TTITLE1=Messin With Me Baby
TTITLE2=Sue Somebody
TTITLE3=Burn That Crackhouse Down
TTITLE4=Ive Got The Blues All Over Me
TTITLE5=Brand New Mojo
TTITLE6=Tumblin In The Sea
TTITLE7=Spoiled Rotten To The Bone
TTITLE8=Strut Your Stuff
TTITLE9=Lucy Pearl
TTITLE10=Love Makin Showdown
TTITLE11=The Worlds On Fire
EXTD=
EXTT0=
EXTT1=
EXTT2=
EXTT3=
EXTT4=
EXTT5=
EXTT6=
EXTT7=
EXTT8=
EXTT9=
EXTT10=
EXTT11=
PLAYORDER=
